<?xml version="1.0" encoding="utf-8"?>
<!-- Svg Vector Icons : http://www.onlinewebfonts.com/icon -->
<!DOCTYPE svg PUBLIC "-//W3C//DTD SVG 1.1//EN" "http://www.w3.org/Graphics/SVG/1.1/DTD/svg11.dtd">
<svg version="1.1" xmlns="http://www.w3.org/2000/svg" xmlns:xlink="http://www.w3.org/1999/xlink" x="0px" y="0px" viewBox="0 0 1000 1000" enable-background="new 0 0 1000 1000" xml:space="preserve">
    <metadata> Svg Vector Icons : http://www.onlinewebfonts.com/icon </metadata>
    <g>
        <g transform="translate(0.000000,512.000000) scale(0.100000,-0.100000)" fill="#fec70b">
            <path d="M2061.1,4988.2c-82.3-28.7-174.2-109.1-214.5-187.6c-26.8-47.9-1303.9-3540.3-1325-3616.9c-7.7-30.6,5.7-34.5,93.8-34.5h103.4l285.3,783.1c157,432.7,291,794.6,298.7,806.1c9.6,15.3,739.1-243.2,2232.6-787l2219.2-808l233.6-1.9c128.3-1.9,248.9,1.9,270,7.7c23,5.7-951.6,369.5-2404.9,898c-1346.1,488.3-2452.8,894.2-2460.4,901.8c-11.5,9.6,239.3,737.2,264.2,762.1c13.4,13.4,7668.5-2778.3,7668.5-2797.4c0-17.2-139.8-411.7-229.8-649.1l-40.2-109.1l-78.5,28.7c-42.1,15.3-80.4,26.8-84.2,26.8c-3.8,0-7.7-47.9-7.7-105.3c0-95.7,3.8-105.3,47.9-116.8c59.3-15.3,59.3-15.3,0-174.2c-46-118.7-47.9-147.4-44-405.9l5.7-279.5l501.7,1380.5C9674.1,1269.8,9900,1915,9900,1943.8c0,153.2-113,325.5-248.9,381c-76.6,30.6-2515.9,919.1-5700.1,2077.5c-970.8,352.3-1717.5,614.6-1752,614.6C2164.5,5015,2103.3,5003.5,2061.1,4988.2z M5923.1,3473.6c2770.6-1007.1,3674.4-1344.1,3714.6-1382.4c40.2-38.3,51.7-67,51.7-126.4c0-107.2-271.9-846.3-308.3-838.7c-34.5,5.8-7637.8,2774.4-7647.4,2784c-3.8,3.8,55.5,183.8,134,398.3c78.5,214.5,143.6,394.4,143.6,396.4c0,3.8,23,28.7,49.8,53.6c36.4,34.5,72.8,47.9,126.4,47.9C2237.3,4806.3,3430.2,4381.2,5923.1,3473.6z" />
            <path d="M448.9,917.5c-53.6-7.7-113-21.1-135.9-32.5c-68.9-38.3-176.2-172.3-197.2-250.8c-13.4-51.7-17.2-854-15.3-2600.2l5.7-2523.6l53.6-90c34.5-59.3,84.3-109.1,143.6-143.6l90-53.6h3992.2h3992.2l90,53.6c59.3,34.5,109.1,84.3,143.6,143.6l53.6,90l5.7,2523.6c1.9,1759.6-1.9,2548.5-15.3,2602.1c-26.8,97.6-155.1,235.5-245.1,266.1c-55.5,19.1-957.4,24.9-3967.3,24.9C2300.5,929,502.6,923.2,448.9,917.5z M8381.6,689.6c34.5-21.1,68.9-61.3,76.6-90c7.6-28.7,15.3-1175.6,15.3-2546.6v-2493l-40.2-53.6c-21.1-28.7-67-63.2-101.5-74.7c-42.1-13.4-1246.5-19.2-3971.1-19.2c-3691.6,1.9-3913.7,3.8-3963.5,34.5c-105.3,70.8-99.6-68.9-103.4,2590.6c-1.9,1556.7,3.8,2496.8,15.3,2542.7c13.4,49.8,38.3,84.3,80.4,109.1c59.4,38.3,128.3,38.3,3996,38.3C8262.9,727.9,8320.4,727.9,8381.6,689.6z" />
            <path d="M5387,86.5c-270-59.3-564.8-289.1-681.6-528.5c-199.1-411.7-122.5-873.1,195.3-1185.2c204.9-201,417.4-287.2,712.3-287.2c273.8,0,513.2,95.7,708.4,289.1l109.1,105.3l109.2-109.1c191.5-191.5,419.3-285.3,698.9-285.3c306.4,0,503.6,80.4,718,296.8c216.4,214.5,296.8,411.7,296.8,718c0,436.6-260.4,804.2-675.9,953.5c-195.3,70.8-482.5,70.8-664.4,1.9c-153.2-57.4-319.8-166.6-411.7-268.1l-68.9-76.6l-122.5,114.9C6051.4,67.3,5724,159.2,5387,86.5z M5819.7-116.5c178.1-40.2,333.2-157,495.9-371.5c47.9-63.2,91.9-122.5,99.6-130.2c7.7-9.6,59.4,45.9,114.9,118.7c122.5,168.5,241.3,271.9,381,340.8c97.6,49.8,126.4,53.6,327.4,53.6c218.3,0,224-1.9,367.6-72.8c448-220.2,591.6-767.8,314-1187.1c-247-373.4-760.1-469.1-1137.3-214.5c-55.5,38.3-141.7,122.5-191.5,185.7c-49.8,65.1-107.2,139.8-130.2,164.7l-38.3,47.9l-99.6-135.9c-132.1-178.1-229.8-264.2-384.9-337c-116.8-55.5-141.7-59.3-327.4-59.3s-210.6,3.8-331.2,61.3c-340.8,162.8-536.1,518.9-476.8,869.3C4887.3-296.5,5329.6-5.4,5819.7-116.5z" />
            <path d="M782.1-150.9l-63.2-55.5L713.2-553l-5.8-346.6h708.4h710.4l1.9,124.5c1.9,68.9,1.9,231.7,1.9,363.8s0,256.6-1.9,277.6c-1.9,38.3-15.3,38.3-643.3,38.3H843.4L782.1-150.9z M1934.8-497.5v-210.6h-505.5H925.7l-13.4,59.3c-15.3,76.6-15.3,262.3,0,319.8l11.5,42.1h505.5h505.5V-497.5z" />
            <path d="M2354.1-214.1c-9.6-405.9-9.6-605-1.9-641.4l7.7-44h708.4h706.5l-5.7,346.6l-5.7,346.6l-63.2,55.5l-61.3,55.5h-641.4H2356L2354.1-214.1z M3569.9-357.7c15.3-93.8,15.3-214.5,0-291l-11.5-59.3h-505.5h-505.5v210.6v210.6h505.5h503.6L3569.9-357.7z" />
            <path d="M709.3-1435.7c0-348.5,13.4-415.5,97.6-459.5c42.1-23,1290.5-36.4,1311.6-13.4c9.6,9.6,15.3,394.4,9.6,689.3l-1.9,109.2h-708.4H709.3V-1435.7z M1934.8-1514.2v-208.7h-517h-517l7.6,206.8c3.8,113,7.7,204.9,9.6,206.8c1.9,1.9,229.8,1.9,509.3,1.9h507.4V-1514.2z" />
            <path d="M2348.3-1514.2l1.9-405.9h641.4c564.8,0,645.2,3.8,689.3,32.6c80.4,53.6,91.9,105.3,91.9,451.9v325.5h-714.2h-712.3L2348.3-1514.2z M3575.7-1516.1l5.7-206.8h-517h-517v199.1c0,193.4,1.9,201,44,208.7c23,3.8,252.7,5.7,509.3,5.7l469.1-1.9L3575.7-1516.1z" />
            <path d="M709.3-3047.9v-101.5l1949.2,3.8c1070.3,1.9,1987.5,3.8,2039.2,3.8l90,1.9v95.7v95.7H2748.5H709.3V-3047.9z" />
            <path d="M5208.9-3044.1c0-86.2,3.8-95.7,44-97.6c23,0,478.7-1.9,1012.9-3.8l972.7-3.8v101.5v99.6H6223.7H5208.9V-3044.1z" />
            <path d="M709.3-3867.4v-95.7h813.8h813.8v95.7v95.7h-813.8H709.3V-3867.4z" />
            <path d="M2758.1-3867.4v-95.7h2240.2h2240.2v95.7v95.7H4998.3H2758.1V-3867.4z" />
        </g>
    </g>
</svg>