<?xml version="1.0" encoding="iso-8859-1"?>
<!-- Generator: Adobe Illustrator 16.0.0, SVG Export Plug-In . SVG Version: 6.00 Build 0)  -->
<!DOCTYPE svg PUBLIC "-//W3C//DTD SVG 1.1//EN" "http://www.w3.org/Graphics/SVG/1.1/DTD/svg11.dtd">
<svg version="1.1" id="Capa_1" xmlns="http://www.w3.org/2000/svg" xmlns:xlink="http://www.w3.org/1999/xlink" x="0px" y="0px"
	 width="26.667px" height="26.668px" viewBox="0 0 26.667 26.668" style="enable-background:new 0 0 26.667 26.668;"
	 xml:space="preserve">
<g fill="#f8f9fa">
	<path d="M26.65,14.965c0.031-0.264-0.004-0.533-0.113-0.785l-5-11.168c-0.242-0.539-0.779-0.887-1.369-0.887H6.5
		c-0.591,0-1.127,0.348-1.369,0.887l-5,11.168c-0.112,0.252-0.146,0.521-0.115,0.785C0.01,15.02,0,15.07,0,15.125v7.918
		c0,0.828,0.671,1.5,1.5,1.5h23.667c0.828,0,1.5-0.672,1.5-1.5v-7.918C26.667,15.07,26.658,15.02,26.65,14.965z M17.417,19.543H9.25
		v-6.25H3.815l3.657-8.168h11.725l3.656,8.168h-5.436V19.543L17.417,19.543z"/>
</g>
<g>
</g>
<g>
</g>
<g>
</g>
<g>
</g>
<g>
</g>
<g>
</g>
<g>
</g>
<g>
</g>
<g>
</g>
<g>
</g>
<g>
</g>
<g>
</g>
<g>
</g>
<g>
</g>
<g>
</g>
</svg>
